<svg xmlns="http://www.w3.org/2000/svg" viewBox="0 0 1024 1024" role="img" aria-labelledby="title desc">
  <title id="title">PopRocket app icon</title>
  <desc id="desc">A rocket launching through service status rings.</desc>
  <defs>
    <linearGradient id="sky" x1="132" y1="72" x2="908" y2="952" gradientUnits="userSpaceOnUse">
      <stop offset="0" stop-color="#064E3B"/>
      <stop offset="0.48" stop-color="#0E7490"/>
      <stop offset="1" stop-color="#172554"/>
    </linearGradient>
    <linearGradient id="rocket" x1="344" y1="172" x2="674" y2="770" gradientUnits="userSpaceOnUse">
      <stop offset="0" stop-color="#FFFFFF"/>
      <stop offset="0.58" stop-color="#DFF7F4"/>
      <stop offset="1" stop-color="#A7F3D0"/>
    </linearGradient>
    <linearGradient id="flame" x1="441" y1="715" x2="573" y2="930" gradientUnits="userSpaceOnUse">
      <stop offset="0" stop-color="#FDE68A"/>
      <stop offset="0.42" stop-color="#FB923C"/>
      <stop offset="1" stop-color="#EF4444"/>
    </linearGradient>
    <filter id="softShadow" x="-20%" y="-20%" width="140%" height="150%" color-interpolation-filters="sRGB">
      <feDropShadow dx="0" dy="24" stdDeviation="24" flood-color="#020617" flood-opacity="0.32"/>
    </filter>
  </defs>

  <rect width="1024" height="1024" fill="#063B3D"/>
  <path d="M0 0h1024v402C835 279 665 223 514 234 316 248 146 345 0 525V0Z" fill="#0E7490" opacity="0.48"/>
  <path d="M0 612c132-79 278-108 438-86 208 28 403 132 586 311v187H0V612Z" fill="#172554" opacity="0.54"/>
  <path d="M143 695c144 104 284 157 420 157 127 0 235-45 324-134v138c-92 70-204 105-336 105-154 0-290-38-408-115V695Z" fill="#0B1220" opacity="0.24"/>

  <g fill="none" stroke-linecap="round">
    <path d="M192 534c78-108 186-170 324-184 128-13 244 23 348 109" stroke="#67E8F9" stroke-width="28" opacity="0.34"/>
    <path d="M236 626c72-70 159-107 261-112 111-6 207 30 289 108" stroke="#86EFAC" stroke-width="24" opacity="0.38"/>
    <path d="M236 416c96-111 221-162 374-153" stroke="#FBBF24" stroke-width="22" opacity="0.46"/>
  </g>

  <g filter="url(#softShadow)">
    <path d="M484 686c-42 58-89 100-142 126-14 7-30-5-27-20l30-144 139 38Z" fill="#F97316"/>
    <path d="M538 688c42 58 89 99 142 125 14 7 30-5 27-20l-31-144-138 39Z" fill="#F97316"/>
    <path d="M513 108c111 91 176 206 195 345 16 117-13 224-86 321-70-24-143-36-218-36-21-72-25-140-12-205 30-150 70-280 121-425Z" fill="#F8FAFC"/>
    <path d="M513 108c111 91 176 206 195 345 16 117-13 224-86 321-39-14-78-23-118-29 34-94 53-192 57-293 5-127-11-242-48-344Z" fill="#99F6E4" opacity="0.72"/>
    <circle cx="535" cy="351" r="79" fill="#082F49"/>
    <circle cx="535" cy="351" r="48" fill="#67E8F9"/>
    <circle cx="552" cy="330" r="17" fill="#ECFEFF" opacity="0.9"/>
    <path d="M406 704c66-17 139-17 214 0l-38 72c-48-11-94-11-138 0l-38-72Z" fill="#0F172A"/>
    <path d="M466 760c30-11 63-11 96 0 21 65 4 122-50 171-54-49-69-106-46-171Z" fill="url(#flame)"/>
  </g>

  <g>
    <circle cx="240" cy="412" r="38" fill="#FDE68A"/>
    <circle cx="240" cy="412" r="16" fill="#0F172A" opacity="0.86"/>
    <circle cx="800" cy="604" r="42" fill="#4ADE80"/>
    <circle cx="800" cy="604" r="18" fill="#0F172A" opacity="0.86"/>
    <circle cx="726" cy="255" r="30" fill="#67E8F9"/>
    <circle cx="726" cy="255" r="12" fill="#0F172A" opacity="0.86"/>
  </g>
</svg>
